<svg xmlns="http://www.w3.org/2000/svg" viewBox="0 0 1600 400" aria-hidden="true">
  <defs>
    <linearGradient id="sky2" x1="0" y1="0" x2="0" y2="1">
      <stop offset="0" stop-color="#FFB266"/>
      <stop offset="1" stop-color="#FF9933"/>
    </linearGradient>
  </defs>
  <rect width="1600" height="400" fill="url(#sky2)"/>
  <g fill="#0A1F44" opacity="0.18">
    <path d="M0 320 L60 290 L120 320 L180 280 L260 320 L320 300 L400 320 L480 285 L560 320 L640 295 L720 320 L800 280 L880 320 L960 290 L1040 320 L1120 285 L1200 320 L1280 300 L1360 320 L1440 290 L1520 320 L1600 305 L1600 400 L0 400 Z"/>
  </g>
  <g opacity="0.55">
    <g transform="translate(120 60)">
      <rect x="0" y="0" width="3" height="240" fill="#0A1F44"/>
      <rect x="3" y="0" width="90" height="22" fill="#FF9933"/>
      <rect x="3" y="22" width="90" height="22" fill="#FFFFFF"/>
      <rect x="3" y="44" width="90" height="22" fill="#138808"/>
    </g>
    <g transform="translate(360 100)">
      <rect x="0" y="0" width="3" height="200" fill="#0A1F44"/>
      <rect x="3" y="0" width="74" height="18" fill="#FF9933"/>
      <rect x="3" y="18" width="74" height="18" fill="#FFFFFF"/>
      <rect x="3" y="36" width="74" height="18" fill="#138808"/>
    </g>
    <g transform="translate(1200 50)">
      <rect x="0" y="0" width="3" height="260" fill="#0A1F44"/>
      <rect x="3" y="0" width="100" height="24" fill="#FF9933"/>
      <rect x="3" y="24" width="100" height="24" fill="#FFFFFF"/>
      <rect x="3" y="48" width="100" height="24" fill="#138808"/>
    </g>
    <g transform="translate(1420 90)">
      <rect x="0" y="0" width="3" height="220" fill="#0A1F44"/>
      <rect x="3" y="0" width="80" height="20" fill="#FF9933"/>
      <rect x="3" y="20" width="80" height="20" fill="#FFFFFF"/>
      <rect x="3" y="40" width="80" height="20" fill="#138808"/>
    </g>
  </g>
</svg>
